<svg width="26" height="28" viewBox="0 0 26 28" fill="none" xmlns="http://www.w3.org/2000/svg">
<path fill-rule="evenodd" clip-rule="evenodd" d="M5.49373 0.419922C6.03875 0.419922 6.48057 0.861746 6.48057 1.40676V2.57687H18.7534V1.40676C18.7534 0.861746 19.1953 0.419922 19.7403 0.419922C20.2853 0.419922 20.7271 0.861746 20.7271 1.40676V2.63201C23.1011 2.98911 24.9212 5.03754 24.9212 7.51108L24.9212 22.6239C24.9212 25.349 22.7121 27.5581 19.987 27.5581H5.51331C2.78822 27.5581 0.579102 25.349 0.579102 22.6239V7.51108C0.579102 5.13087 2.26444 3.14429 4.50689 2.67958V1.40676C4.50689 0.861746 4.94871 0.419922 5.49373 0.419922ZM5.48055 4.55073C3.86059 4.56829 2.55279 5.88696 2.55279 7.51108V22.6239C2.55279 24.2589 3.87826 25.5844 5.51331 25.5844H19.987C21.622 25.5844 22.9475 24.2589 22.9475 22.6239L22.9475 7.51108C22.9475 5.87602 21.622 4.55055 19.987 4.55055H5.51678C5.50912 4.55072 5.50144 4.55081 5.49373 4.55081C5.48933 4.55081 5.48494 4.55078 5.48055 4.55073ZM5.37233 8.59658C5.37233 8.05156 5.81416 7.60973 6.35918 7.60973H19.0413C19.5863 7.60973 20.0281 8.05156 20.0281 8.59658C20.0281 9.14159 19.5863 9.58342 19.0413 9.58342H6.35918C5.81416 9.58342 5.37233 9.14159 5.37233 8.59658Z" fill="#004280" stroke="#004280" stroke-width="0.394737" stroke-linecap="round" stroke-linejoin="round"/>
</svg>
