<svg width="16" height="15" viewBox="0 0 16 15" fill="none" xmlns="http://www.w3.org/2000/svg">
<path opacity="0.3" d="M5.24078 8.9948L1.7765 6.47786H6.05858C6.34018 6.47786 6.58975 6.29654 6.67677 6.02873L8 1.95623L9.32323 6.02873L9.75121 5.88967L9.32323 6.02873C9.41025 6.29654 9.65982 6.47786 9.94142 6.47786H14.2235L10.7592 8.9948L11.0237 9.35886L10.7592 8.99481C10.5314 9.16033 10.4361 9.45371 10.5231 9.72152L11.8463 13.794L8.38206 11.2771C8.15424 11.1116 7.84576 11.1116 7.61794 11.2771L4.15367 13.794L5.4769 9.72153C5.56392 9.45371 5.46859 9.16032 5.24078 8.99481L4.97627 9.35886L5.24078 8.9948Z" fill="#1F4382" stroke="#1F4382" stroke-width="0.9"/>
</svg>
